<svg xmlns:xlink="http://www.w3.org/1999/xlink" xmlns="http://www.w3.org/2000/svg" width="149" height="81.35516308502368" viewBox="0 0 149 81.35516308502368" class="css-1j8o68f"><defs id="SvgjsDefs1001"></defs><g id="SvgjsG1007" featurekey="7fT3kx-0" transform="matrix(0.3410931321150795,0,0,0.3410931321150795,4.795344153260128,74.41732823781864)" fill="#08D9D6"><path d="M13.3 7.279999999999999 l-5.26 0 l0 12.72 l-2.12 0 l0 -12.72 l-5.32 0 l0 -2.2 l12.7 0 l0 2.2 z M34.432 20.34 q-2.1 0 -3.61 -0.73 t-2.3 -2.11 t-0.79 -3.3 l0 -9.12 l2.16 0 l0 9.12 q0 1.92 1.18 2.94 t3.36 1.02 t3.36 -1.02 t1.18 -2.94 l0 -9.12 l2.16 0 l0 9.12 q0 1.92 -0.79 3.3 t-2.3 2.11 t-3.61 0.73 z M90.83600000000001 5.08 l2.3 0 l-4.76 14.92 l-2.36 0 l-2.88 -8.82 l-2.8 8.82 l-2.36 0 l-5.06 -14.92 l2.24 0 l3.96 11.16 l2.8 -8.8 l-0.76 -2.36 l2.24 0 l3.76 11.16 z M110.048 14.02 l0 3.8 l9.2 0 l0 2.18 l-11.38 0 l0 -14.92 l10.5 0 l0 2.2 l-8.32 0 l0 4.52 q0.62 -0.36 1.38 -0.48 q0.56 -0.1 1.44 -0.1 l3.26 0 l0 2.22 l-3.26 0 q-0.82 0 -1.44 0.1 q-0.76 0.14 -1.38 0.48 z M136.74 7.279999999999999 l0 4.56 q0.62 -0.36 1.4 -0.5 q0.58 -0.1 1.44 -0.1 l2.56 0 q1.04 0 1.63 -0.52 t0.59 -1.54 q0 -1.9 -2.22 -1.9 l-5.4 0 z M136.74 14.059999999999999 l0 3.76 l5.62 0 q0.66 0 1.26 -0.24 q0.66 -0.24 1.04 -0.7 q0.44 -0.54 0.44 -1.24 q0 -1.2 -0.94 -1.74 q-0.74 -0.44 -2.02 -0.44 l-2.56 0 q-1.72 0 -2.84 0.6 z M147.26 15.92 q0 1.4 -0.78 2.38 q-0.68 0.86 -1.92 1.3 q-1.1 0.4 -2.42 0.4 l-7.56 0 l0 -14.92 l7.56 0 q1.28 0 2.27 0.48 t1.55 1.38 q0.58 0.94 0.58 2.22 q0 0.98 -0.35 1.75 t-0.99 1.19 q0.86 0.4 1.42 1.32 q0.64 1.06 0.64 2.5 z M184.604 6.66 l-0.82 -1.84 l2.4 0 l7.18 15.18 l-2.44 0 l-0.98 -2.18 l-4.54 0 q-1.28 0 -2.3 0.24 q-0.9 0.22 -1.5 0.58 q-0.54 0.32 -0.72 0.66 l-0.38 0.7 l-2.36 0 z M186.204 15.620000000000001 l2.76 0 l-3.26 -6.3 l-3.3 7.14 q0.44 -0.38 1.34 -0.6 q1.02 -0.24 2.46 -0.24 z M236.348 7.279999999999999 l-5.26 0 l0 12.72 l-2.12 0 l0 -12.72 l-5.32 0 l0 -2.2 l12.7 0 l0 2.2 z M257.48 20.34 q-2.1 0 -3.61 -0.73 t-2.3 -2.11 t-0.79 -3.3 l0 -9.12 l2.16 0 l0 9.12 q0 1.92 1.18 2.94 t3.36 1.02 t3.36 -1.02 t1.18 -2.94 l0 -9.12 l2.16 0 l0 9.12 q0 1.92 -0.79 3.3 t-2.3 2.11 t-3.61 0.73 z M310.244 7 l-1.4 1.64 q-0.82 -0.84 -1.96 -1.32 t-2.4 -0.48 q-1.64 0 -2.99 0.74 t-2.11 2.02 q-0.78 1.34 -0.78 2.98 q0 1.56 0.84 2.88 q0.8 1.24 2.15 1.97 t2.91 0.73 q1.1 0 2.11 -0.38 t1.81 -1.06 l0 -2.72 l-1.92 0 l-0.94 -2.16 l5.02 0 l0 5.8 q-1.14 1.28 -2.73 1.99 t-3.37 0.71 q-2.22 0 -4.08 -1.08 q-1.82 -1.04 -2.86 -2.86 q-1.08 -1.86 -1.08 -4.08 q0 -2.14 1.14 -3.94 q1.08 -1.72 2.93 -2.73 t3.97 -1.01 q1.66 0 3.16 0.64 q1.46 0.6 2.58 1.72 z M332.616 20.34 q-2.1 0 -3.61 -0.73 t-2.3 -2.11 t-0.79 -3.3 l0 -9.12 l2.16 0 l0 9.12 q0 1.92 1.18 2.94 t3.36 1.02 t3.36 -1.02 t1.18 -2.94 l0 -9.12 l2.16 0 l0 9.12 q0 1.92 -0.79 3.3 t-2.3 2.11 t-3.61 0.73 z M366.94800000000004 15.46 q0 1.46 -0.88 2.6 q-0.86 1.08 -2.37 1.68 t-3.41 0.6 q-1.74 0 -3.38 -0.81 t-2.76 -2.25 l1.56 -1.46 q1.94 2.34 4.58 2.34 q1.16 0 2.12 -0.28 q1.06 -0.32 1.64 -0.9 q0.66 -0.64 0.66 -1.52 q0 -1.06 -0.66 -1.6 q-0.56 -0.46 -1.66 -0.6 q-0.64 -0.08 -2.1 -0.08 q-2.68 0 -4.09 -0.98 t-1.41 -2.88 q0 -1.2 0.71 -2.28 t1.95 -1.72 q1.28 -0.68 2.84 -0.68 q1.76 0 3.18 0.54 q1.52 0.58 2.82 1.82 l-1.36 1.6 q-1.22 -0.98 -2.22 -1.37 t-2.42 -0.39 q-0.82 0 -1.53 0.34 t-1.13 0.91 t-0.42 1.21 q0 1.72 3.18 1.72 q2.54 0 4.02 0.52 q1.4 0.5 2 1.52 q0.54 0.9 0.54 2.4 z M393.08000000000004 7.279999999999999 l-5.26 0 l0 12.72 l-2.12 0 l0 -12.72 l-5.32 0 l0 -2.2 l12.7 0 l0 2.2 z M420.6120000000001 12.440000000000001 q0 -1.6 -0.82 -2.9 q-0.78 -1.26 -2.13 -1.98 t-2.93 -0.72 q-1.64 0 -2.99 0.74 t-2.11 2.02 q-0.78 1.34 -0.78 2.98 q0 1.56 0.84 2.88 q0.8 1.24 2.15 1.97 t2.92 0.73 t2.92 -0.76 t2.13 -2.04 q0.8 -1.34 0.8 -2.92 z M422.77200000000005 12.559999999999999 q0 2.16 -1.12 3.98 q-1.08 1.74 -2.93 2.77 t-3.99 1.03 q-2.22 0 -4.08 -1.08 q-1.82 -1.04 -2.86 -2.86 q-1.08 -1.86 -1.08 -4.08 q0 -2.14 1.14 -3.94 q1.08 -1.72 2.93 -2.73 t3.97 -1.01 q2.18 0 4.04 1.06 q1.82 1.04 2.88 2.82 q1.1 1.86 1.1 4.04 z" fill="#08D9D6"></path></g><g id="SvgjsG1008" featurekey="nameLeftFeature-0" transform="matrix(2.1454111160228306,0,0,2.1454111160228306,5.854588883977169,23.09177767954339)" fill="#252A34"><path d="M9.92 10.4 c-0.02 2.12 -1.72 3.4 -3.36 3.4 l-2.54 0 l0 6.2 l-3.02 0 l0 -16.78 l4.46 0 c0.38 0 0.76 0.02 1.12 0.02 c1.68 0 3.34 1.46 3.34 3.64 l0 3.52 z M5.92 11.54 c0.48 0 0.88 -0.24 0.96 -1 c0 -1.26 0.02 -2.56 0.02 -3.68 c0 -0.96 -0.52 -1.14 -0.98 -1.2 l-1.9 0 l0 5.9 l1.66 0 c0.02 0 0.24 -0.02 0.24 -0.02 z M16.62 3.219999999999999 l4.04 16.78 l-3.06 0 l-0.78 -3.58 l-3.3 0 l-0.8 3.58 l-3.04 0 l4.02 -16.78 l2.92 0 z M15.160000000000002 8.94 l-1.14 5.22 l2.3 0 z M28.700000000000003 3.219999999999999 l3.06 0 l0 16.78 l-3.14 0 l-3.7 -10.18 l0 10.18 l-3.06 0 l0 -16.78 l3.24 0 l3.6 9.72 l0 -9.72 z" fill="#252A34"></path></g><g id="SvgjsG1009" featurekey="nameRightFeature-0" transform="matrix(2.1454111160228306,0,0,2.1454111160228306,77.06912876796537,23.091776145025783)" fill="#252A34"><path d="M5.74 3.2399999999999984 c0.28 0 0.56 -0.02 0.84 -0.02 c1.88 0 3.46 1.68 3.46 3.54 l0 8.62 c0 0.3 0.02 0.62 0.02 0.92 c0.02 1.98 -1.46 3.7 -3.48 3.7 l-5.68 0 l0 -16.76 l4.84 0 z M6.58 19.6 c1.78 0 3.08 -1.5 3.08 -3.3 l-0.02 -9.54 c0 -1.66 -1.4 -3.14 -3.06 -3.14 l-5.28 0.02 l0 15.96 l5.28 0 z M4.18 5.66 l1.5 0 c0.62 0 1.18 0.6 1.18 1.18 c0 3.14 0.02 6.26 0.02 9.4 c0 1.12 -0.78 1.4 -1.72 1.4 c-0.18 0 -0.38 -0.02 -0.58 -0.02 l-0.4 0 l0 -11.96 z M4.58 6.0600000000000005 l0 11.16 l1.1 0 c0.08 0 0.18 -0.04 0.26 -0.06 c0.3 -0.16 0.58 -0.5 0.54 -1 c-0.02 -0.5 -0.02 -1 -0.02 -1.46 l0 -7.86 c0 -0.44 -0.4 -0.74 -0.78 -0.78 l-1.1 0 z M15.219999999999999 12.54 l0 4.82 l4.52 0 l0 2.64 l-8.08 0 l0 -16.76 l8.08 0 l0 2.64 l-4.52 -0.02 l0 4.08 l2.84 0 l0 2.6 l-2.84 0 z M17.66 12.14 l0 -1.8 l-2.84 0 l0 -4.88 l4.52 0.02 l0 -1.84 l-7.28 0 l0 15.96 l7.28 0 l0 -1.84 l-4.52 0 l0 -5.62 l2.84 0 z M26.36 13.52 l2.02 -10.28 l3.58 0 l-3.9 16.76 l-3.44 0 l-3.9 -16.76 l3.58 0 z M28.7 3.6400000000000006 l-2.34 11.96 l-2.38 -11.96 l-2.76 0 l3.72 15.96 l2.8 0 l3.72 -15.96 l-2.76 0 z" fill="#252A34"></path></g></svg>